<svg width="30" height="42" viewBox="0 0 30 42" fill="none" xmlns="http://www.w3.org/2000/svg">
<path d="M15 19.9582C13.6187 19.9582 12.2939 19.4094 11.3171 18.4327C10.3404 17.4559 9.79166 16.1312 9.79166 14.7498C9.79166 13.3685 10.3404 12.0437 11.3171 11.067C12.2939 10.0902 13.6187 9.5415 15 9.5415C16.3813 9.5415 17.7061 10.0902 18.6828 11.067C19.6596 12.0437 20.2083 13.3685 20.2083 14.7498C20.2083 15.4338 20.0736 16.1111 19.8119 16.743C19.5501 17.3749 19.1665 17.949 18.6828 18.4327C18.1992 18.9163 17.625 19.3 16.9931 19.5617C16.3612 19.8235 15.684 19.9582 15 19.9582ZM15 0.166504C11.1322 0.166504 7.42292 1.70296 4.68802 4.43786C1.95311 7.17277 0.416656 10.8821 0.416656 14.7498C0.416656 25.6873 15 41.8332 15 41.8332C15 41.8332 29.5833 25.6873 29.5833 14.7498C29.5833 10.8821 28.0469 7.17277 25.312 4.43786C22.5771 1.70296 18.8677 0.166504 15 0.166504Z" fill="#DC6523"/>
</svg>
